<svg id="Слой_1" xmlns="http://www.w3.org/2000/svg" viewBox="0 0 16 16"><style>.st0{fill:#01191e}.st2{fill:none;stroke:#01191e;stroke-width:.1;stroke-miterlimit:10}</style><path class="st0" d="M9.1 13.9h-.7c-.1 0-.3-.9-.2-1.1.1-.2 1.1-1.2 1.2-1.7-.8 0-1.6-.1-2.2 0-.2.4-.6 1.2-.6 1.6 0 .2.7 2.1.7 2.1h2.3c.1-.1 0-.9-.5-.9z"/><path d="M14.3 2.6H16c.1-.3-.5-1.2-1.5-1.1-.4-.7-1-.7-1.6-.1-.1.1-.3.2-.4.2-.8-.1-.8.7-.8.8v3c-7.2-.3-8 4.7-11.5 7.3-.1.1-.1.3.1.3 2.8.6 5-2.5 6.9-2.1h2.4c0 .1-.1.3-.2.5-.1.4-.3.9-.3 1.2 0 .1.3.9.5 1.4.2.2.3.6.3.6h2.3s0-.8-.6-.8h-.7c-.1 0-.3-.9-.2-1.1.1-.1 1.1-1 1.1-2.1.7-.3 1.4-.8 1.9-1.6 0 .2 0 .5.1.6.1.1.6-.1.6-.4.1-.9-.2-1-.4-1.1.1-.3.2-.7.3-1.1V3.6l-.4-.3.4.3c.2.1.3.2.6.3.3.1 1 0 1.1-.6-.1-.1-1.1-.5-1.5-.7-.2.1-.2 0-.2 0z" fill="#01202a"/><path class="st2" d="M11.6 10.6s0-2.5-3.3-2"/><path class="st0" d="M4.4 8.2c.3-.4.7-.7 1.1-1l.1-.1s.1 0 .1-.1c0 0 .1 0 .1-.1l.2-.1h.1l.1-.1c.3-.2.6-.3.9-.5.1 0 .1-.1.2-.1h.1c.1 0 .1-.1.2-.1h.1c.5-.2 1-.3 1.6-.4.6-.1 1.3-.2 2.1-.2l-.9-.6c-.4-.1-.7 0-.8.2l-.5.6-.7-.4c-.2-.2-.5-.1-.7.1l-.5.6-.8-.2c-.3 0-.5.1-.6.3l-.3.8-1 .1c-.2-.1-.4.1-.4.4l-.1 1-.9.1c-.2 0-.4.2-.4.5v1.2c.5-.6.9-1.1 1.4-1.6 0-.1.1-.2.2-.3zM14.8 7h-.6c0 .3-.1.5-.2.7.1 0 .5-.1.6 0 .1.1-.1.7.1.8.2.1.6-.3.7-.4 0-.2 0-1-.6-1.1z"/><path class="st2" d="M11.8 7.5c-.2 2.2 1.7.8 1.7 1.5m-.7-1.6c-.2 1.2.6.6 1.1.7"/><circle cx="13.8" cy="1.7" r=".2" fill="#fff"/></svg>