<?xml version="1.0" encoding="utf-8"?>
<!-- Generator: Adobe Illustrator 21.0.2, SVG Export Plug-In . SVG Version: 6.00 Build 0)  -->
<svg version="1.1" id="Слой_2" xmlns="http://www.w3.org/2000/svg" xmlns:xlink="http://www.w3.org/1999/xlink" x="0px" y="0px"
	 viewBox="0 0 310 269" style="enable-background:new 0 0 310 269;" xml:space="preserve">
<style type="text/css">
	.st0{fill:none;stroke:#01202A;stroke-width:4;stroke-miterlimit:10;}
</style>
<path class="st0" d="M221.7,188.5c0,0,0-47.3-61.3-37.6 M174,249.3c-9.5-0.9-11.1,0.5-12.7-0.3c-1.6-0.8-5.8-17.5-3.1-21.4
	c2.3-3.4,21.3-22.6,22.8-32.5c-15.3,0.2-29.9-1.2-41-0.6c-3.1,6.8-10.6,23.9-10.6,31.1c0,3.9,13,38.6,13,38.6h42.9
	C185.2,264.1,184.5,249.9,174,249.3L174,249.3z"/>
<path class="st0" d="M273.2,36.5c8.7-0.1,28.7,0,31.1-0.1c1.3-5-9-22.8-27.3-20c-7.9-12.6-19.4-13-29.5-2.2
	c-2.1,2.3-5.1,3.5-8.2,3.3c-15.7-1.4-15.9,12.3-15.9,15.9l0.2,57.2C87.5,85.7,73.8,179.3,7,228.5c-2.3,1.7-1.6,5.3,1.2,6
	c53.2,12.2,93.2-47.5,128.9-40.3c0.9,0.2,1.9,0.3,2.9,0.2c11-0.5,25.3,0.8,40.4,0.6h0.6c-0.4,2.4-1.8,5.5-3.8,8.7
	c-2.7,7.9-5.3,17.2-5.3,21.8c0,2.4,4.8,16.2,8.6,26.6c4.3,4.3,4.7,12,4.7,12h42.6c0,0-0.7-14.3-11.2-14.9
	c-9.5-0.9-11.1,0.5-12.7-0.3c-1.6-0.8-5.8-17.5-3.1-21.4c1.8-2.6,20.3-19.3,20.9-39c13.8-5.3,26.3-14.6,35.5-30.7
	c0,4.6,0,9.1,2.3,10.4c2.8,1.9,11.6-2.6,12.2-6.8c2.3-16.2-4.6-19-7.1-20.2c2-6,3.8-12.6,5.1-20c0.1-0.4,0.1-0.9,0.1-1.3
	c0-6.1-0.2-62.5-0.2-62.5l-8.3-5.8c0,0,7.9,5.5,8.3,5.8c3.1,1.9,6.3,4.1,10.4,5.5c4.7,1.6,19.2-0.1,21.2-12
	c-1.4-1.6-21-9.2-28.3-12.3C271.8,38.1,272,36.5,273.2,36.5L273.2,36.5z"/>
<path class="st0" d="M86.1,142.6c6.3-6.6,13.1-13,20.5-18.8l0.3-0.3c0.7-0.5,1.4-1.1,2.1-1.6c0.2-0.1,0.4-0.3,0.6-0.4
	c0.6-0.5,1.3-0.9,1.9-1.4c0.2-0.2,0.5-0.3,0.7-0.5c0.6-0.4,1.2-0.9,1.8-1.3c0.3-0.2,0.5-0.4,0.8-0.6l1.8-1.2l0.9-0.6l1.8-1.2
	c5.3-3.4,10.9-6.5,17-9.3c1.2-0.6,2.5-1.1,3.7-1.7c0.3-0.1,0.6-0.3,0.9-0.4c1.3-0.5,2.6-1.1,4-1.6c0.3-0.1,0.5-0.2,0.8-0.3
	c9.1-3.5,19-6.2,30-8.1c11.6-2,24.3-3.1,38.5-3.1l-16.8-10.6c-3.7-2.8-8.9-2.1-11.7,1.6l-10,11.7l-12.8-7.7c-3.7-2.7-9-1.9-11.7,1.9
	l-10,12.3l-15.7-3.5c-4.4-1.4-9.1,1.1-10.5,5.5l-5.2,13.8L91,116.7c-4.6,0-8.4,3.7-8.4,8.4l-1.1,18.1l-16.7,2.4
	c-4.6,0.3-8.1,4.2-7.9,8.8v22.5c8.2-10.2,16.3-20.4,25.2-30l0.3-0.3C83.6,145.1,84.8,143.9,86.1,142.6L86.1,142.6z M281.9,120.6
	c-6.8-0.6-12-0.5-12.2-0.5v0.5c0,0.3,0,0.5-0.1,0.8c-0.8,4.7-1.8,9.1-3,13.3c2.7-0.4,9.4-1.1,11.7,0.2c2.8,1.6-1.6,12.8,1.3,15.4
	c4.2,1.1,12.2-4.7,12.7-7.4C293.5,136,293.1,122.2,281.9,120.6z M226.2,129.4c-4.5,41.7,32.7,14.2,31,28.3 M244.7,128.1
	c-4.6,22.7,12.1,10.9,19.9,13.1"/>
<circle class="st0" cx="263.2" cy="20.4" r="3.3"/>
</svg>
