<svg id="Слой_2" xmlns="http://www.w3.org/2000/svg" viewBox="0 0 310 269"><style>.st0{fill:none;stroke:#01202a;stroke-width:4;stroke-miterlimit:10}</style><path class="st0" d="M221.7 188.5s0-47.3-61.3-37.6m13.6 98.4c-9.5-.9-11.1.5-12.7-.3-1.6-.8-5.8-17.5-3.1-21.4 2.3-3.4 21.3-22.6 22.8-32.5-15.3.2-29.9-1.2-41-.6-3.1 6.8-10.6 23.9-10.6 31.1 0 3.9 13 38.6 13 38.6h42.9c-.1-.1-.8-14.3-11.3-14.9z"/><path class="st0" d="M273.2 36.5c8.7-.1 28.7 0 31.1-.1 1.3-5-9-22.8-27.3-20-7.9-12.6-19.4-13-29.5-2.2-2.1 2.3-5.1 3.5-8.2 3.3-15.7-1.4-15.9 12.3-15.9 15.9l.2 57.2C87.5 85.7 73.8 179.3 7 228.5c-2.3 1.7-1.6 5.3 1.2 6 53.2 12.2 93.2-47.5 128.9-40.3.9.2 1.9.3 2.9.2 11-.5 25.3.8 40.4.6h.6c-.4 2.4-1.8 5.5-3.8 8.7-2.7 7.9-5.3 17.2-5.3 21.8 0 2.4 4.8 16.2 8.6 26.6 4.3 4.3 4.7 12 4.7 12h42.6s-.7-14.3-11.2-14.9c-9.5-.9-11.1.5-12.7-.3-1.6-.8-5.8-17.5-3.1-21.4 1.8-2.6 20.3-19.3 20.9-39 13.8-5.3 26.3-14.6 35.5-30.7 0 4.6 0 9.1 2.3 10.4 2.8 1.9 11.6-2.6 12.2-6.8 2.3-16.2-4.6-19-7.1-20.2 2-6 3.8-12.6 5.1-20 .1-.4.1-.9.1-1.3 0-6.1-.2-62.5-.2-62.5l-8.3-5.8s7.9 5.5 8.3 5.8c3.1 1.9 6.3 4.1 10.4 5.5 4.7 1.6 19.2-.1 21.2-12-1.4-1.6-21-9.2-28.3-12.3-1.1-.5-.9-2.1.3-2.1z"/><path class="st0" d="M86.1 142.6c6.3-6.6 13.1-13 20.5-18.8l.3-.3c.7-.5 1.4-1.1 2.1-1.6.2-.1.4-.3.6-.4.6-.5 1.3-.9 1.9-1.4.2-.2.5-.3.7-.5.6-.4 1.2-.9 1.8-1.3.3-.2.5-.4.8-.6l1.8-1.2.9-.6 1.8-1.2c5.3-3.4 10.9-6.5 17-9.3 1.2-.6 2.5-1.1 3.7-1.7.3-.1.6-.3.9-.4 1.3-.5 2.6-1.1 4-1.6.3-.1.5-.2.8-.3 9.1-3.5 19-6.2 30-8.1 11.6-2 24.3-3.1 38.5-3.1l-16.8-10.6c-3.7-2.8-8.9-2.1-11.7 1.6l-10 11.7-12.8-7.7c-3.7-2.7-9-1.9-11.7 1.9l-10 12.3-15.7-3.5c-4.4-1.4-9.1 1.1-10.5 5.5l-5.2 13.8-18.8 1.5c-4.6 0-8.4 3.7-8.4 8.4l-1.1 18.1-16.7 2.4c-4.6.3-8.1 4.2-7.9 8.8v22.5c8.2-10.2 16.3-20.4 25.2-30l.3-.3c1.2-1.5 2.4-2.7 3.7-4zm195.8-22c-6.8-.6-12-.5-12.2-.5v.5c0 .3 0 .5-.1.8-.8 4.7-1.8 9.1-3 13.3 2.7-.4 9.4-1.1 11.7.2 2.8 1.6-1.6 12.8 1.3 15.4 4.2 1.1 12.2-4.7 12.7-7.4 1.2-6.9.8-20.7-10.4-22.3zm-55.7 8.8c-4.5 41.7 32.7 14.2 31 28.3m-12.5-29.6c-4.6 22.7 12.1 10.9 19.9 13.1"/><circle class="st0" cx="263.2" cy="20.4" r="3.3"/></svg>