<svg id="Слой_1" xmlns="http://www.w3.org/2000/svg" viewBox="0 0 242 22"><style>.st1{fill:#ffd46a;stroke:#feecd1;stroke-miterlimit:10}.st1,.st2{stroke-width:2}.st2,.st5{fill:none;stroke:#feecd1;stroke-miterlimit:10}</style><path d="M11 22c0-6.1-4.9-11-11-11 6.1 0 11-4.9 11-11 0 6.1 4.9 11 11 11-6.1 0-11 4.9-11 11z" fill="#ffedd3" stroke="#201f2d" stroke-width="2" stroke-miterlimit="10"/><path class="st1" d="M33 18c0-3.9-3.1-7-7-7 3.9 0 7-3.1 7-7 0 3.9 3.1 7 7 7-3.9 0-7 3.1-7 7z"/><path class="st2" d="M55 18c0-3.9-3.1-7-7-7 3.9 0 7-3.1 7-7 0 3.9 3.1 7 7 7-3.8 0-7 3.1-7 7z"/><circle class="st1" cx="77" cy="11" r="4.5"/><circle class="st2" cx="99" cy="11" r="2.5"/><circle class="st2" cx="121" cy="11" r="1.5"/><path d="M142 10h2v2h-2v-2z" fill="#c62606"/><path d="M170.3 4.5h-2.7c-.1-.5-.5-.9-1.1-.9h-3.2c-.6 0-1 .4-1.1.9h-2.5c-.6 0-1.2.5-1.2 1.2v.4c0 .2.1.3.3.3h12.3c.2 0 .3-.1.3-.3v-.4c0-.7-.5-1.2-1.1-1.2zm-.2 2.9h-10.2c-.3 0-.5.2-.5.5v9.3c0 .7.5 1.2 1.2 1.2h8.8c.7 0 1.2-.5 1.2-1.2V7.9c0-.3-.3-.5-.5-.5zm-7.5 8.7c0 .3-.2.5-.5.5s-.5-.2-.5-.5V9.6c0-.3.2-.5.5-.5s.5.2.5.5v6.5zm2.8 0c0 .3-.2.5-.5.5s-.5-.2-.5-.5V9.6c0-.3.2-.5.5-.5s.5.2.5.5v6.5zm2.9 0c0 .3-.2.5-.5.5s-.5-.2-.5-.5V9.6c0-.3.2-.5.5-.5s.5.2.5.5v6.5z" fill="#ffc85b"/><path class="st5" d="M191.7 15.1h-5.8c-.6 0-1.2-.5-1.2-1.2V5.3c0-.6.5-1.2 1.2-1.2h4.6c.1 0 .1 0 .2.1l2.1 2.4s.1.1.1.2V14c0 .5-.5 1.1-1.2 1.1z"/><path class="st5" d="M185.9 15.1c-.6 0-1.2-.5-1.2-1.2V7h-2.5c-.6 0-1.2.5-1.2 1.2v8.6c0 .6.5 1.2 1.2 1.2h5.8c.6 0 1.2-.5 1.2-1.2v-1.7h-3.3zm7-8.1h-2.6V4.1h.2c.1 0 .2 0 .2.1l2.1 2.4c0 .1.1.1.1.2V7zM212 18.3h-7.4c-.8 0-1.4-.6-1.4-1.4V11c0-.3.3-.6.6-.6h8.5c.5 0 .9.4.9.9V17c0 .8-.5 1.3-1.2 1.3zm-.5-14.6l-9.9 3.7c-.3.1-.5.5-.4.8l.5 1.2c.1.3.5.5.8.4l.2-.1c.1 0 .1-.1.2-.2 0-.1.1-.1.2-.2l8.6-3.2h.4l.2-.1c.3-.1.5-.5.4-.8l-.5-1.2c-.1-.2-.4-.4-.7-.3z"/><path d="M209.4 13.3h-2.3c-.2 0-.4-.2-.4-.4s.2-.4.4-.4h2.3c.2 0 .4.2.4.4-.1.2-.2.4-.4.4z" fill="#feecd1"/><path class="st5" d="M211.5 10.4c.3 0 .4-.1.4-.3s-.1-.3-.3-.3h-.1"/><path class="st5" d="M211.5 9.8c.1-.1.1-.1.1-.3s-.1-.3-.3-.3c-.1 0-.2.1-.3.1"/><path class="st5" d="M211.1 9.4c0-.2-.1-.4-.3-.4s-.3.1-.3.3v.1"/><path class="st5" d="M210.5 9.4c-.1-.1-.1-.1-.3-.1s-.3.1-.3.3c0 .1.1.2.1.3"/><path class="st5" d="M210 9.8c-.2 0-.3.1-.3.3s.1.3.3.3h.1m2.6-2.8s-.1 0 0 0c-.3 0-.5.2-.5.4s.2.4.4.4h.1c-.2.1-.3.2-.3.4s.2.4.4.4.3-.1.4-.2m.1-2c-.1-.1-.2-.2-.4-.2s-.4.2-.4.4.1.3.2.4m1.5-.6c0-.3-.2-.5-.4-.5s-.4.2-.4.4V7m1.4.6c.1-.1.2-.2.2-.4s-.2-.4-.4-.4-.3.1-.4.2m.5 1.5h.1c.2 0 .4-.2.4-.4s-.2-.4-.4-.4h-.1m-.5 1.4c.1.1.2.2.4.2s.4-.2.4-.4-.1-.3-.2-.4m-1.5.6v.1c0 .2.2.4.4.4s.4-.2.4-.4v-.1"/><path fill="#fff" d="M235.2 7.8l-1.4-1-3.9 5-2-1.6-1.1 1.4 3.4 2.6z"/></svg>