<?xml version="1.0" encoding="utf-8"?>
<!-- Generator: Adobe Illustrator 21.0.2, SVG Export Plug-In . SVG Version: 6.00 Build 0)  -->
<svg version="1.1" id="Слой_1" xmlns="http://www.w3.org/2000/svg" xmlns:xlink="http://www.w3.org/1999/xlink" x="0px" y="0px"
	 viewBox="0 0 242 22" style="enable-background:new 0 0 242 22;" xml:space="preserve">
<style type="text/css">
	.st0{fill:#FFEDD3;stroke:#201F2D;stroke-width:2;stroke-miterlimit:10;}
	.st1{fill:#FFD46A;stroke:#FEECD1;stroke-width:2;stroke-miterlimit:10;}
	.st2{fill:none;stroke:#FEECD1;stroke-width:2;stroke-miterlimit:10;}
	.st3{fill:#C62606;}
	.st4{fill:#FFC85B;}
	.st5{fill:none;stroke:#FEECD1;stroke-miterlimit:10;}
	.st6{display:none;fill:none;stroke:#FFD46A;stroke-miterlimit:10;}
	.st7{fill:#FEECD1;}
	.st8{fill:#FFFFFF;}
</style>
<path class="st0" d="M11,22c0-6.1-4.9-11-11-11c6.1,0,11-4.9,11-11c0,6.1,4.9,11,11,11C15.9,11,11,15.9,11,22z"/>
<path class="st1" d="M33,18c0-3.9-3.1-7-7-7c3.9,0,7-3.1,7-7c0,3.9,3.1,7,7,7C36.1,11,33,14.1,33,18z"/>
<path class="st2" d="M55,18c0-3.9-3.1-7-7-7c3.9,0,7-3.1,7-7c0,3.9,3.1,7,7,7C58.2,11,55,14.1,55,18z"/>
<circle class="st1" cx="77" cy="11" r="4.5"/>
<circle class="st2" cx="99" cy="11" r="2.5"/>
<circle class="st2" cx="121" cy="11" r="1.5"/>
<path class="st3" d="M142,10h2v2h-2V10z"/>
<path class="st4" d="M170.3,4.5h-2.7c-0.1-0.5-0.5-0.9-1.1-0.9h-3.2c-0.6,0-1,0.4-1.1,0.9h-2.5c-0.6,0-1.2,0.5-1.2,1.2v0.4
	c0,0.2,0.1,0.3,0.3,0.3h12.3c0.2,0,0.3-0.1,0.3-0.3V5.7C171.4,5,170.9,4.5,170.3,4.5z M170.1,7.4h-10.2c-0.3,0-0.5,0.2-0.5,0.5v9.3
	c0,0.7,0.5,1.2,1.2,1.2h8.8c0.7,0,1.2-0.5,1.2-1.2V7.9C170.6,7.6,170.3,7.4,170.1,7.4z M162.6,16.1c0,0.3-0.2,0.5-0.5,0.5
	s-0.5-0.2-0.5-0.5V9.6c0-0.3,0.2-0.5,0.5-0.5s0.5,0.2,0.5,0.5V16.1z M165.4,16.1c0,0.3-0.2,0.5-0.5,0.5s-0.5-0.2-0.5-0.5V9.6
	c0-0.3,0.2-0.5,0.5-0.5s0.5,0.2,0.5,0.5V16.1z M168.3,16.1c0,0.3-0.2,0.5-0.5,0.5s-0.5-0.2-0.5-0.5V9.6c0-0.3,0.2-0.5,0.5-0.5
	s0.5,0.2,0.5,0.5V16.1z"/>
<path class="st5" d="M191.7,15.1h-5.8c-0.6,0-1.2-0.5-1.2-1.2V5.3c0-0.6,0.5-1.2,1.2-1.2h4.6c0.1,0,0.1,0,0.2,0.1l2.1,2.4
	c0,0,0.1,0.1,0.1,0.2V14C192.9,14.5,192.4,15.1,191.7,15.1L191.7,15.1z"/>
<path class="st5" d="M185.9,15.1c-0.6,0-1.2-0.5-1.2-1.2V7h-2.5c-0.6,0-1.2,0.5-1.2,1.2v8.6c0,0.6,0.5,1.2,1.2,1.2h5.8
	c0.6,0,1.2-0.5,1.2-1.2v-1.7C189.2,15.1,185.9,15.1,185.9,15.1z M192.9,7h-2.6V4.1h0.2c0.1,0,0.2,0,0.2,0.1l2.1,2.4
	c0,0.1,0.1,0.1,0.1,0.2V7z"/>
<path class="st6" d="M337-50.1h-68.5c-2.2,0-4-1.8-4-4v-8.6c0-2.2,1.8-4,4-4H337c2.2,0,4,1.8,4,4v8.6C341-51.9,339.2-50.1,337-50.1z
	"/>
<path class="st5" d="M212,18.3h-7.4c-0.8,0-1.4-0.6-1.4-1.4V11c0-0.3,0.3-0.6,0.6-0.6h8.5c0.5,0,0.9,0.4,0.9,0.9V17
	C213.2,17.8,212.7,18.3,212,18.3L212,18.3z M211.5,3.7l-9.9,3.7c-0.3,0.1-0.5,0.5-0.4,0.8l0.5,1.2c0.1,0.3,0.5,0.5,0.8,0.4l0.2-0.1
	c0.1,0,0.1-0.1,0.2-0.2c0-0.1,0.1-0.1,0.2-0.2l8.6-3.2h0.4l0.2-0.1c0.3-0.1,0.5-0.5,0.4-0.8L212.2,4C212.1,3.8,211.8,3.6,211.5,3.7z
	"/>
<path class="st7" d="M209.4,13.3h-2.3c-0.2,0-0.4-0.2-0.4-0.4s0.2-0.4,0.4-0.4h2.3c0.2,0,0.4,0.2,0.4,0.4
	C209.7,13.1,209.6,13.3,209.4,13.3z"/>
<g>
	<path class="st5" d="M211.5,10.4c0.3,0,0.4-0.1,0.4-0.3s-0.1-0.3-0.3-0.3h-0.1"/>
	<path class="st5" d="M211.5,9.8c0.1-0.1,0.1-0.1,0.1-0.3s-0.1-0.3-0.3-0.3c-0.1,0-0.2,0.1-0.3,0.1"/>
	<path class="st5" d="M211.1,9.4c0-0.2-0.1-0.4-0.3-0.4s-0.3,0.1-0.3,0.3v0.1"/>
	<path class="st5" d="M210.5,9.4c-0.1-0.1-0.1-0.1-0.3-0.1s-0.3,0.1-0.3,0.3c0,0.1,0.1,0.2,0.1,0.3"/>
	<path class="st5" d="M210,9.8c-0.2,0-0.3,0.1-0.3,0.3s0.1,0.3,0.3,0.3h0.1"/>
</g>
<path class="st5" d="M212.7,7.6C212.7,7.6,212.6,7.6,212.7,7.6c-0.3,0-0.5,0.2-0.5,0.4c0,0.2,0.2,0.4,0.4,0.4h0.1
	c-0.2,0.1-0.3,0.2-0.3,0.4s0.2,0.4,0.4,0.4s0.3-0.1,0.4-0.2 M213.3,7c-0.1-0.1-0.2-0.2-0.4-0.2s-0.4,0.2-0.4,0.4s0.1,0.3,0.2,0.4
	 M214.2,7c0-0.3-0.2-0.5-0.4-0.5s-0.4,0.2-0.4,0.4V7 M214.8,7.6c0.1-0.1,0.2-0.2,0.2-0.4s-0.2-0.4-0.4-0.4s-0.3,0.1-0.4,0.2
	 M214.7,8.5h0.1c0.2,0,0.4-0.2,0.4-0.4s-0.2-0.4-0.4-0.4h-0.1 M214.2,9.1c0.1,0.1,0.2,0.2,0.4,0.2s0.4-0.2,0.4-0.4s-0.1-0.3-0.2-0.4
	 M213.3,9.1v0.1c0,0.2,0.2,0.4,0.4,0.4s0.4-0.2,0.4-0.4V9.1"/>
<polygon class="st8" points="235.2,7.8 233.8,6.8 229.9,11.8 227.9,10.2 226.8,11.6 230.2,14.2 "/>
</svg>
