<svg id="Слой_1" xmlns="http://www.w3.org/2000/svg" viewBox="0 0 24.4 27.2"><style>.st0{fill:#06303a}.st1{fill:#f6fbfd}.st2{fill:#ced1da}.st3{fill:#454c55}.st4{fill:#2e343c}.st5{fill:#29544b}.st6{opacity:.4;fill:#454c55}.st7{fill:#e7eaef}.st8{fill:#d34352}.st9{fill:#ffd6a0}.st10{fill:#acb3bf}.st11{fill:#f5cb9a}</style><ellipse class="st0" cx="12.2" cy="23.8" rx="12.2" ry="3.4"/><path class="st1" d="M12.2 0c-1.1 0-2 .9-2 2s.9 2 2 2 2-.9 2-2-.9-2-2-2zm0 3.2c-.6 0-1.2-.5-1.2-1.2S11.5.8 12.2.8s1.2.5 1.2 1.2-.5 1.2-1.2 1.2z"/><path class="st2" d="M12.2.5C11.5.5 11 1 11 1.7v.1c.1-.6.6-1.1 1.2-1.1s1.1.5 1.2 1.1v-.1c0-.6-.5-1.2-1.2-1.2zM12.2 3.7c-1.1 0-1.9-.8-2-1.9v.1c0 1.1.9 2 2 2s2-.9 2-2v-.1c-.1 1.1-.9 1.9-2 1.9z"/><path class="st3" d="M13 4.3c-.1-.9-.1-1.4-.1-1.5 0-.3-.4-.4-.7-.4-.2 0-.7.1-.7.4 0 .1 0 .7-.1 1.5"/><path class="st4" d="M12.9 2.8c0-.3-.2-.4-.5-.4.2 0 .3.1.3.3 0 .1 0 .5.1 1.2h-1.2c0-.7.1-1.1.1-1.2 0-.2.2-.3.3-.3-.2.1-.5.2-.5.4 0 .1 0 .7-.1 1.5H13c-.1-.8-.1-1.4-.1-1.5z"/><circle class="st5" cx="12.2" cy="14.3" r="10.2"/><path class="st6" d="M12.2 4.4c5.6 0 10.1 4.5 10.2 10v-.2C22.4 8.6 17.8 4 12.2 4 6.6 4.1 2.1 8.7 2.1 14.3v.2c0-5.6 4.6-10.1 10.1-10.1z"/><path class="st4" d="M12.2 24.2c-5.6 0-10.1-4.5-10.2-10v.2C2 20 6.6 24.6 12.2 24.6S22.4 20 22.4 14.4v-.2c-.1 5.5-4.6 10-10.2 10z"/><circle class="st7" cx="12.2" cy="14.3" r="7.4"/><path class="st6" d="M12.2 21.7c-4 0-7.3-3.2-7.4-7.2v.2c0 4.1 3.3 7.4 7.4 7.4 4.1 0 7.4-3.3 7.4-7.4v-.2c-.1 4-3.3 7.2-7.4 7.2z"/><path class="st7" d="M13.5 14.7l3.2-4.4-4.5 3.1zM7.8 19.2l4.4-3.2-1.3-1.3z"/><path class="st7" d="M17.4 14.6v-.1l-3.9-.7 1.3-1.8h-.1l-1.8 1.3-.7-3.9h-.1l-.6 3.9L9.7 12l-.1.1 1.3 1.8-3.9.7v.1l3.9.6-1.2 1.8.1.1 1.7-1.3.7 3.9h.2l.6-3.9 1.8 1.2-1.3-1.8z"/><path class="st7" d="M12.2 7.6c4 0 7.2 3.1 7.4 7.1v-.3c0-4.1-3.3-7.4-7.4-7.4-4.1 0-7.4 3.3-7.4 7.4v.3c.2-4 3.5-7.1 7.4-7.1z"/><path class="st8" d="M13.5 14.3l3.2-4.4-4.5 3.1z"/><path class="st3" d="M7.8 18.8l4.4-3.2-1.3-1.3z"/><path class="st9" d="M13.7 14.3c0-.5-.3-1-.7-1.2l-.7-3.9h-.1l-.6 4c-.4.3-.7.7-.7 1.2s.3 1 .7 1.2l.7 3.9h.1l.6-4c.4-.2.7-.7.7-1.2z"/><path class="st9" d="M12.2 12.9c-.5 0-1 .3-1.2.7l-4 .7v.1l4 .6c.3.4.7.7 1.2.7s1-.3 1.2-.7l3.9-.7v-.1l-4-.6c-.1-.4-.5-.7-1.1-.7z"/><path class="st10" d="M12.9 15c.3-.3.3-.6.2-.9l1.6-2.3-.1-.1-2.2 1.6c-.3-.1-.7 0-.9.3-.3.3-.3.6-.2.9l-1.6 2.3.1.1 2.2-1.6c.3.1.7 0 .9-.3z"/><path class="st11" d="M12.9 13.6c-.3-.3-.6-.3-.9-.2l-2.3-1.6-.1.1 1.6 2.2c-.1.3 0 .7.3.9.3.3.6.3.9.2l2.3 1.6.1-.1-1.6-2.2c.1-.3 0-.6-.3-.9z"/><path class="st1" d="M12.2 14.8c-.3 0-.6-.3-.6-.6s.3-.6.6-.6.6.3.6.6c0 .4-.3.6-.6.6z"/><path class="st1" d="M12.2 16c-1 0-1.7-.8-1.7-1.7 0-1 .8-1.7 1.7-1.7 1 0 1.7.8 1.7 1.7.1.9-.7 1.7-1.7 1.7zm0-3c-.7 0-1.3.6-1.3 1.3 0 .7.6 1.3 1.3 1.3.7 0 1.3-.6 1.3-1.3 0-.8-.6-1.3-1.3-1.3z"/><path class="st10" d="M11.4 8.2l-.1-.8h.2l.1.8zM10.8 8.3l-.2-.8h.2l.2.8z"/><path transform="rotate(-18.63 10.14 8.089)" class="st10" d="M10.1 7.7h.2v.8h-.2z"/><path transform="rotate(-24.646 9.504 8.34)" class="st10" d="M9.4 7.9h.2v.8h-.2z"/><path class="st10" d="M9.1 9.2c-.1 0-.1 0-.2-.1l-.4-.7c-.1-.1 0-.2.1-.2.1-.1.2 0 .2.1l.4.7c.1 0 .1.1-.1.2.1 0 0 0 0 0zM15.8 20.4c-.1 0-.1 0-.2-.1l-.4-.7c-.1-.1 0-.2.1-.2.1-.1.2 0 .2.1l.4.7c.1 0 .1.1-.1.2.1 0 0 0 0 0z"/><path transform="rotate(-36.698 8.33 9.038)" class="st10" d="M8.2 8.6h.2v.8h-.2z"/><path transform="rotate(-36.688 16.133 19.522)" class="st10" d="M16 19.1h.2v.8H16z"/><path class="st10" d="M8 9.8l-.5-.6.1-.1.5.6z"/><path transform="rotate(-42.674 16.66 19.087)" class="st10" d="M16.6 18.7h.2v.8h-.2z"/><path class="st10" d="M7.6 10.3L7 9.8l.1-.2.6.6zM17.4 18.9l-.6-.5.1-.1.6.5z"/><path transform="rotate(-54.709 6.9 10.5)" class="st10" d="M6.8 10.1H7v.8h-.2z"/><path transform="rotate(-54.669 17.561 18.06)" class="st10" d="M17.5 17.7h.2v.8h-.2z"/><path class="st10" d="M6.9 11.5s-.1-.1 0 0l-.8-.5c-.1 0-.1-.1-.1-.2s.2-.1.2-.1l.8.4c.1 0 .1.2.1.2l-.2.2zM18.3 17.9c-.1 0-.1 0 0 0l-.8-.4c-.1 0-.1-.2-.1-.2 0-.1.2-.1.2-.1l.7.4c.1 0 .1.2.1.2l-.1.1zM6.6 11.9l-.8-.3.1-.2.7.4zM18.6 17.1l-.8-.3.1-.2.7.3z"/><path transform="rotate(-72.681 5.992 12.332)" class="st10" d="M5.9 11.9h.2v.8h-.2z"/><path class="st10" d="M18.8 16.4l-.7-.2V16l.8.3zM6.2 13.2l-.8-.2v-.2l.8.2zM19 15.7l-.8-.1.1-.2.7.2z"/><path transform="rotate(-84.686 5.725 13.672)" class="st10" d="M5.6 13.3h.2v.8h-.2z"/><path transform="matrix(.09343 -.9956 .9956 .09343 2.163 32.153)" class="st10" d="M18.6 14.5h.2v.8h-.2z"/><path transform="rotate(-6.735 5.737 15.038)" class="st10" d="M5.3 14.9h.8v.2h-.8z"/><path transform="rotate(-6.603 18.722 13.523)" class="st10" d="M18.3 13.4h.8v.2h-.8z"/><path class="st10" d="M5.5 15.9l-.1-.2.8-.2.1.2z"/><path transform="rotate(-12.533 18.608 12.85)" class="st10" d="M18.2 12.8h.8v.2h-.8z"/><path class="st10" d="M5.7 16.6l-.1-.2.8-.2v.1z"/><path transform="rotate(-18.676 18.425 12.191)" class="st10" d="M18 12.1h.8v.2H18z"/><path transform="rotate(-24.687 6.291 17.005)" class="st10" d="M5.9 16.9h.8v.2h-.8z"/><path transform="rotate(-24.729 18.168 11.554)" class="st10" d="M17.8 11.5h.8v.2h-.8z"/><path class="st10" d="M6.3 18c-.1 0-.1 0-.2-.1 0-.1 0-.2.1-.2l.7-.4c.1 0 .2 0 .2.1.1.1 0 .2-.1.2l-.7.4zM17.5 11.3c-.1 0-.1 0-.2-.1s0-.2.1-.2l.7-.4c.1-.1.2 0 .2.1.1.1 0 .2-.1.2l-.7.4c.1 0 0 0 0 0z"/><path transform="rotate(-36.657 6.988 18.181)" class="st10" d="M6.6 18.1h.8v.2h-.8z"/><path transform="rotate(-36.579 17.474 10.38)" class="st10" d="M17.1 10.3h.8v.2h-.8z"/><path transform="rotate(-42.803 7.425 18.707)" class="st10" d="M7 18.6h.8v.2H7z"/><path class="st10" d="M16.8 10.2l-.1-.1.6-.6.1.1z"/><path transform="rotate(-48.883 7.914 19.185)" class="st10" d="M7.5 19.1h.8v.2h-.8z"/><path transform="rotate(-48.714 16.548 9.375)" class="st10" d="M16.1 9.3h.8v.2h-.8z"/><path transform="rotate(-54.753 8.452 19.61)" class="st10" d="M8 19.5h.8v.2H8z"/><path transform="rotate(-54.535 16.012 8.95)" class="st10" d="M15.6 8.9h.8v.2h-.8z"/><path class="st10" d="M8.8 20.5c-.2-.1-.2-.2-.2-.3l.4-.7c0-.1.2-.1.2-.1.1 0 .1.2.1.2l-.3.8c0 .1-.1.1-.2.1zM15.2 9.1c-.1-.1-.2-.2-.1-.3l.4-.7c0-.1.2-.1.2-.1.1 0 .1.2.1.2l-.4.8c0 .1-.1.1-.2.1z"/><path transform="rotate(-66.609 14.821 8.28)" class="st10" d="M14.4 8.2h.8v.2h-.8z"/><path transform="rotate(-72.512 14.179 8.042)" class="st10" d="M13.8 8h.8v.2h-.8z"/><path class="st10" d="M13.5 8.3l-.2-.1.2-.7h.2z"/><path transform="rotate(-84.543 12.84 7.774) scale(1.00003)" class="st10" d="M12.4 7.7h.8v.2h-.8z"/><path class="st10" d="M13 20.4l.1.8h-.2v-.8z"/><path transform="rotate(-12.657 13.66 20.712)" class="st10" d="M13.6 20.3h.2v.8h-.2z"/><path class="st10" d="M14.3 20.1l.2.8h-.1l-.3-.7zM14.9 19.9l.3.7-.2.1-.3-.7zM9.7 19.9l.2.1-.3.7h-.2zM10.3 20.2h.2l-.3.8-.1-.1zM10.9 20.3l.2.1-.1.8-.2-.1z"/><path transform="rotate(-84.641 11.623 20.846) scale(.99997)" class="st10" d="M11.2 20.8h.8v.2h-.8z"/></svg>