<?xml version="1.0" encoding="utf-8"?>
<!-- Generator: Adobe Illustrator 21.0.2, SVG Export Plug-In . SVG Version: 6.00 Build 0)  -->
<svg version="1.1" id="Слой_1" xmlns="http://www.w3.org/2000/svg" xmlns:xlink="http://www.w3.org/1999/xlink" x="0px" y="0px"
	 viewBox="0 0 24.4 27.2" style="enable-background:new 0 0 24.4 27.2;" xml:space="preserve">
<style type="text/css">
	.st0{fill:#06303A;}
	.st1{fill:#F6FBFD;}
	.st2{fill:#CED1DA;}
	.st3{fill:#454C55;}
	.st4{fill:#2E343C;}
	.st5{fill:#29544B;}
	.st6{opacity:0.4;fill:#454C55;}
	.st7{fill:#E7EAEF;}
	.st8{fill:#D34352;}
	.st9{fill:#FFD6A0;}
	.st10{fill:#ACB3BF;}
	.st11{fill:#F5CB9A;}
</style>
<ellipse class="st0" cx="12.2" cy="23.8" rx="12.2" ry="3.4"/>
<g>
	<path class="st1" d="M12.2,0c-1.1,0-2,0.9-2,2c0,1.1,0.9,2,2,2c1.1,0,2-0.9,2-2C14.2,0.9,13.3,0,12.2,0z M12.2,3.2
		C11.6,3.2,11,2.7,11,2c0-0.7,0.5-1.2,1.2-1.2c0.7,0,1.2,0.5,1.2,1.2C13.4,2.7,12.9,3.2,12.2,3.2z"/>
	<path class="st2" d="M12.2,0.5c-0.7,0-1.2,0.5-1.2,1.2c0,0,0,0.1,0,0.1c0.1-0.6,0.6-1.1,1.2-1.1c0.6,0,1.1,0.5,1.2,1.1
		c0,0,0-0.1,0-0.1C13.4,1.1,12.9,0.5,12.2,0.5z"/>
	<path class="st2" d="M12.2,3.7c-1.1,0-1.9-0.8-2-1.9c0,0,0,0.1,0,0.1c0,1.1,0.9,2,2,2c1.1,0,2-0.9,2-2c0,0,0-0.1,0-0.1
		C14.1,2.9,13.3,3.7,12.2,3.7z"/>
	<path class="st3" d="M13,4.3c-0.1-0.9-0.1-1.4-0.1-1.5c0-0.3-0.4-0.4-0.7-0.4c-0.2,0-0.7,0.1-0.7,0.4c0,0.1,0,0.7-0.1,1.5"/>
	<path class="st4" d="M12.9,2.8c0-0.3-0.2-0.4-0.5-0.4c0.2,0,0.3,0.1,0.3,0.3c0,0.1,0,0.5,0.1,1.2h-1.2c0-0.7,0.1-1.1,0.1-1.2
		c0-0.2,0.2-0.3,0.3-0.3c-0.2,0.1-0.5,0.2-0.5,0.4c0,0.1,0,0.7-0.1,1.5H13C12.9,3.5,12.9,2.9,12.9,2.8z"/>
	<circle class="st5" cx="12.2" cy="14.3" r="10.2"/>
	<path class="st6" d="M12.2,4.4c5.6,0,10.1,4.5,10.2,10c0-0.1,0-0.1,0-0.2c0-5.6-4.6-10.2-10.2-10.2C6.6,4.1,2.1,8.7,2.1,14.3
		c0,0.1,0,0.1,0,0.2C2.1,8.9,6.7,4.4,12.2,4.4z"/>
	<path class="st4" d="M12.2,24.2c-5.6,0-10.1-4.5-10.2-10c0,0.1,0,0.1,0,0.2c0,5.6,4.6,10.2,10.2,10.2c5.6,0,10.2-4.6,10.2-10.2
		c0-0.1,0-0.1,0-0.2C22.3,19.7,17.8,24.2,12.2,24.2z"/>
	<circle class="st7" cx="12.2" cy="14.3" r="7.4"/>
	<path class="st6" d="M12.2,21.7c-4,0-7.3-3.2-7.4-7.2c0,0.1,0,0.1,0,0.2c0,4.1,3.3,7.4,7.4,7.4c4.1,0,7.4-3.3,7.4-7.4
		c0-0.1,0-0.1,0-0.2C19.5,18.5,16.3,21.7,12.2,21.7z"/>
	<polygon class="st7" points="13.5,14.7 16.7,10.3 12.2,13.4 12.2,13.4 	"/>
	<polygon class="st7" points="7.8,19.2 12.2,16 10.9,14.7 10.9,14.7 	"/>
	<polygon class="st7" points="17.4,14.6 17.4,14.5 13.5,13.8 14.8,12 14.7,12 12.9,13.3 12.2,9.4 12.1,9.4 11.5,13.3 9.7,12 
		9.6,12.1 10.9,13.9 7,14.6 7,14.7 10.9,15.3 9.7,17.1 9.8,17.2 11.5,15.9 12.2,19.8 12.4,19.8 13,15.9 14.8,17.1 14.8,17.1 
		13.5,15.3 	"/>
	<path class="st7" d="M12.2,7.6c4,0,7.2,3.1,7.4,7.1c0-0.1,0-0.2,0-0.3c0-4.1-3.3-7.4-7.4-7.4c-4.1,0-7.4,3.3-7.4,7.4
		c0,0.1,0,0.2,0,0.3C5,10.7,8.3,7.6,12.2,7.6z"/>
	<polygon class="st8" points="13.5,14.3 16.7,9.9 12.2,13 12.2,13 	"/>
	<polygon class="st3" points="7.8,18.8 12.2,15.6 10.9,14.3 10.9,14.3 	"/>
	<path class="st9" d="M13.7,14.3c0-0.5-0.3-1-0.7-1.2l-0.7-3.9l-0.1,0l-0.6,4c-0.4,0.3-0.7,0.7-0.7,1.2c0,0,0,0,0,0c0,0,0,0,0,0
		c0,0.5,0.3,1,0.7,1.2l0.7,3.9l0.1,0l0.6-4C13.4,15.3,13.7,14.8,13.7,14.3C13.7,14.3,13.7,14.3,13.7,14.3
		C13.7,14.3,13.7,14.3,13.7,14.3z"/>
	<path class="st9" d="M12.2,12.9c-0.5,0-1,0.3-1.2,0.7L7,14.3l0,0.1l4,0.6c0.3,0.4,0.7,0.7,1.2,0.7c0,0,0,0,0,0c0,0,0,0,0,0
		c0.5,0,1-0.3,1.2-0.7l3.9-0.7l0-0.1l-4-0.6C13.2,13.2,12.8,12.9,12.2,12.9C12.2,12.9,12.2,12.9,12.2,12.9
		C12.2,12.9,12.2,12.9,12.2,12.9z"/>
	<path class="st10" d="M12.9,15c0.3-0.3,0.3-0.6,0.2-0.9l1.6-2.3l-0.1-0.1l-2.2,1.6c-0.3-0.1-0.7,0-0.9,0.3c0,0,0,0,0,0c0,0,0,0,0,0
		c-0.3,0.3-0.3,0.6-0.2,0.9l-1.6,2.3l0.1,0.1l2.2-1.6C12.3,15.4,12.7,15.3,12.9,15C12.9,15,12.9,15,12.9,15C12.9,15,12.9,15,12.9,15
		z"/>
	<path class="st11" d="M12.9,13.6c-0.3-0.3-0.6-0.3-0.9-0.2l-2.3-1.6l-0.1,0.1l1.6,2.2c-0.1,0.3,0,0.7,0.3,0.9c0,0,0,0,0,0
		c0,0,0,0,0,0c0.3,0.3,0.6,0.3,0.9,0.2l2.3,1.6l0.1-0.1l-1.6-2.2C13.3,14.2,13.2,13.9,12.9,13.6C12.9,13.6,12.9,13.6,12.9,13.6
		C12.9,13.6,12.9,13.6,12.9,13.6z"/>
	<path class="st1" d="M12.2,14.8c-0.3,0-0.6-0.3-0.6-0.6c0-0.3,0.3-0.6,0.6-0.6c0.3,0,0.6,0.3,0.6,0.6
		C12.8,14.6,12.5,14.8,12.2,14.8z"/>
	<path class="st1" d="M12.2,16c-1,0-1.7-0.8-1.7-1.7c0-1,0.8-1.7,1.7-1.7c1,0,1.7,0.8,1.7,1.7C14,15.2,13.2,16,12.2,16z M12.2,13
		c-0.7,0-1.3,0.6-1.3,1.3c0,0.7,0.6,1.3,1.3,1.3c0.7,0,1.3-0.6,1.3-1.3C13.5,13.5,12.9,13,12.2,13z"/>
	<g>
		<g>
			<g>
				<polygon class="st10" points="11.4,8.2 11.3,7.4 11.5,7.4 11.6,8.2 				"/>
			</g>
		</g>
	</g>
	<g>
		<g>
			<g>
				<polygon class="st10" points="10.8,8.3 10.6,7.5 10.8,7.5 11,8.3 				"/>
			</g>
		</g>
	</g>
	<g>
		<g>
			<g>
				
					<rect x="10.1" y="7.7" transform="matrix(0.9476 -0.3194 0.3194 0.9476 -2.0523 3.6625)" class="st10" width="0.2" height="0.8"/>
			</g>
		</g>
	</g>
	<g>
		<g>
			<g>
				<rect x="9.4" y="7.9" transform="matrix(0.9089 -0.417 0.417 0.9089 -2.6123 4.7229)" class="st10" width="0.2" height="0.8"/>
			</g>
		</g>
	</g>
	<g>
		<g>
			<g>
				<path class="st10" d="M9.1,9.2C9,9.2,9,9.2,8.9,9.1L8.5,8.4c-0.1-0.1,0-0.2,0.1-0.2c0.1-0.1,0.2,0,0.2,0.1l0.4,0.7
					C9.3,9,9.3,9.1,9.1,9.2C9.2,9.2,9.1,9.2,9.1,9.2z"/>
			</g>
		</g>
	</g>
	<g>
		<g>
			<g>
				<path class="st10" d="M15.8,20.4c-0.1,0-0.1,0-0.2-0.1l-0.4-0.7c-0.1-0.1,0-0.2,0.1-0.2c0.1-0.1,0.2,0,0.2,0.1l0.4,0.7
					C16,20.2,16,20.3,15.8,20.4C15.9,20.4,15.8,20.4,15.8,20.4z"/>
			</g>
		</g>
	</g>
	<g>
		<g>
			<g>
				
					<rect x="8.2" y="8.6" transform="matrix(0.8018 -0.5976 0.5976 0.8018 -3.7502 6.7692)" class="st10" width="0.2" height="0.8"/>
			</g>
		</g>
	</g>
	<g>
		<g>
			<g>
				
					<rect x="16" y="19.1" transform="matrix(0.8019 -0.5975 0.5975 0.8019 -8.4684 13.507)" class="st10" width="0.2" height="0.8"/>
			</g>
		</g>
	</g>
	<g>
		<g>
			<g>
				<polygon class="st10" points="8,9.8 7.5,9.2 7.6,9.1 8.1,9.7 				"/>
			</g>
		</g>
	</g>
	<g>
		<g>
			<g>
				
					<rect x="16.6" y="18.7" transform="matrix(0.7352 -0.6778 0.6778 0.7352 -8.526 16.3457)" class="st10" width="0.2" height="0.8"/>
			</g>
		</g>
	</g>
	<g>
		<g>
			<g>
				<polygon class="st10" points="7.6,10.3 7,9.8 7.1,9.6 7.7,10.2 				"/>
			</g>
		</g>
	</g>
	<g>
		<g>
			<g>
				<polygon class="st10" points="17.4,18.9 16.8,18.4 16.9,18.3 17.5,18.8 				"/>
			</g>
		</g>
	</g>
	<g>
		<g>
			<g>
				
					<rect x="6.8" y="10.1" transform="matrix(0.5777 -0.8162 0.8162 0.5777 -5.6567 10.0662)" class="st10" width="0.2" height="0.8"/>
			</g>
		</g>
	</g>
	<g>
		<g>
			<g>
				
					<rect x="17.5" y="17.7" transform="matrix(0.5783 -0.8158 0.8158 0.5783 -7.3285 21.9425)" class="st10" width="0.2" height="0.8"/>
			</g>
		</g>
	</g>
	<g>
		<g>
			<g>
				<path class="st10" d="M6.9,11.5C6.9,11.5,6.8,11.4,6.9,11.5L6.1,11C6,11,6,10.9,6,10.8c0-0.1,0.2-0.1,0.2-0.1L7,11.1
					c0.1,0,0.1,0.2,0.1,0.2C7,11.4,6.9,11.5,6.9,11.5z"/>
			</g>
		</g>
	</g>
	<g>
		<g>
			<g>
				<path class="st10" d="M18.3,17.9C18.2,17.9,18.2,17.9,18.3,17.9l-0.8-0.4c-0.1,0-0.1-0.2-0.1-0.2c0-0.1,0.2-0.1,0.2-0.1l0.7,0.4
					c0.1,0,0.1,0.2,0.1,0.2C18.4,17.8,18.3,17.9,18.3,17.9z"/>
			</g>
		</g>
	</g>
	<g>
		<g>
			<g>
				<polygon class="st10" points="6.6,11.9 5.8,11.6 5.9,11.4 6.6,11.8 				"/>
			</g>
		</g>
	</g>
	<g>
		<g>
			<g>
				<polygon class="st10" points="18.6,17.1 17.8,16.8 17.9,16.6 18.6,16.9 				"/>
			</g>
		</g>
	</g>
	<g>
		<g>
			<g>
				
					<rect x="5.9" y="11.9" transform="matrix(0.2977 -0.9547 0.9547 0.2977 -7.5645 14.3818)" class="st10" width="0.2" height="0.8"/>
			</g>
		</g>
	</g>
	<g>
		<g>
			<g>
				<polygon class="st10" points="18.8,16.4 18.1,16.2 18.1,16 18.9,16.3 				"/>
			</g>
		</g>
	</g>
	<g>
		<g>
			<g>
				<polygon class="st10" points="6.2,13.2 5.4,13 5.4,12.8 6.2,13 				"/>
			</g>
		</g>
	</g>
	<g>
		<g>
			<g>
				<polygon class="st10" points="19,15.7 18.2,15.6 18.3,15.4 19,15.6 				"/>
			</g>
		</g>
	</g>
	<g>
		<g>
			<g>
				
					<rect x="5.6" y="13.3" transform="matrix(9.261198e-02 -0.9957 0.9957 9.261198e-02 -8.4186 18.1062)" class="st10" width="0.2" height="0.8"/>
			</g>
		</g>
	</g>
	<g>
		<g>
			<g>
				
					<rect x="18.6" y="14.5" transform="matrix(9.343027e-02 -0.9956 0.9956 9.343027e-02 2.1633 32.1528)" class="st10" width="0.2" height="0.8"/>
			</g>
		</g>
	</g>
	<g>
		<g>
			<g>
				
					<rect x="5.3" y="14.9" transform="matrix(0.9931 -0.1171 0.1171 0.9931 -1.7214 0.7756)" class="st10" width="0.8" height="0.2"/>
			</g>
		</g>
	</g>
	<g>
		<g>
			<g>
				
					<rect x="18.3" y="13.4" transform="matrix(0.9934 -0.115 0.115 0.9934 -1.4309 2.2427)" class="st10" width="0.8" height="0.2"/>
			</g>
		</g>
	</g>
	<g>
		<g>
			<g>
				<polygon class="st10" points="5.5,15.9 5.4,15.7 6.2,15.5 6.3,15.7 				"/>
			</g>
		</g>
	</g>
	<g>
		<g>
			<g>
				
					<rect x="18.2" y="12.8" transform="matrix(0.9762 -0.217 0.217 0.9762 -2.3449 4.3442)" class="st10" width="0.8" height="0.2"/>
			</g>
		</g>
	</g>
	<g>
		<g>
			<g>
				<polygon class="st10" points="5.7,16.6 5.6,16.4 6.4,16.2 6.4,16.3 				"/>
			</g>
		</g>
	</g>
	<g>
		<g>
			<g>
				
					<rect x="18" y="12.1" transform="matrix(0.9473 -0.3202 0.3202 0.9473 -2.9336 6.5415)" class="st10" width="0.8" height="0.2"/>
			</g>
		</g>
	</g>
	<g>
		<g>
			<g>
				
					<rect x="5.9" y="16.9" transform="matrix(0.9086 -0.4177 0.4177 0.9086 -6.5279 4.1822)" class="st10" width="0.8" height="0.2"/>
			</g>
		</g>
	</g>
	<g>
		<g>
			<g>
				
					<rect x="17.8" y="11.5" transform="matrix(0.9083 -0.4183 0.4183 0.9083 -3.1669 8.6591)" class="st10" width="0.8" height="0.2"/>
			</g>
		</g>
	</g>
	<g>
		<g>
			<g>
				<path class="st10" d="M6.3,18c-0.1,0-0.1,0-0.2-0.1c0-0.1,0-0.2,0.1-0.2l0.7-0.4c0.1,0,0.2,0,0.2,0.1c0.1,0.1,0,0.2-0.1,0.2
					L6.3,18C6.3,18,6.3,18,6.3,18z"/>
			</g>
		</g>
	</g>
	<g>
		<g>
			<g>
				<path class="st10" d="M17.5,11.3c-0.1,0-0.1,0-0.2-0.1c-0.1-0.1,0-0.2,0.1-0.2l0.7-0.4c0.1-0.1,0.2,0,0.2,0.1
					c0.1,0.1,0,0.2-0.1,0.2L17.5,11.3C17.6,11.3,17.5,11.3,17.5,11.3z"/>
			</g>
		</g>
	</g>
	<g>
		<g>
			<g>
				<rect x="6.6" y="18.1" transform="matrix(0.8022 -0.597 0.597 0.8022 -9.4723 7.7674)" class="st10" width="0.8" height="0.2"/>
			</g>
		</g>
	</g>
	<g>
		<g>
			<g>
				
					<rect x="17.1" y="10.3" transform="matrix(0.803 -0.5959 0.5959 0.803 -2.7436 12.4569)" class="st10" width="0.8" height="0.2"/>
			</g>
		</g>
	</g>
	<g>
		<g>
			<g>
				
					<rect x="7" y="18.6" transform="matrix(0.7337 -0.6795 0.6795 0.7337 -10.7342 10.0268)" class="st10" width="0.8" height="0.2"/>
			</g>
		</g>
	</g>
	<g>
		<g>
			<g>
				<polygon class="st10" points="16.8,10.2 16.7,10.1 17.3,9.5 17.4,9.6 				"/>
			</g>
		</g>
	</g>
	<g>
		<g>
			<g>
				
					<rect x="7.5" y="19.1" transform="matrix(0.6576 -0.7534 0.7534 0.6576 -11.7444 12.5311)" class="st10" width="0.8" height="0.2"/>
			</g>
		</g>
	</g>
	<g>
		<g>
			<g>
				
					<rect x="16.1" y="9.3" transform="matrix(0.6598 -0.7514 0.7514 0.6598 -1.415 15.6232)" class="st10" width="0.8" height="0.2"/>
			</g>
		</g>
	</g>
	<g>
		<g>
			<g>
				
					<rect x="8" y="19.5" transform="matrix(0.5771 -0.8167 0.8167 0.5771 -12.4419 15.1958)" class="st10" width="0.8" height="0.2"/>
			</g>
		</g>
	</g>
	<g>
		<g>
			<g>
				
					<rect x="15.6" y="8.9" transform="matrix(0.5802 -0.8145 0.8145 0.5802 -0.5678 16.7986)" class="st10" width="0.8" height="0.2"/>
			</g>
		</g>
	</g>
	<g>
		<g>
			<g>
				<path class="st10" d="M8.8,20.5C8.8,20.5,8.8,20.5,8.8,20.5c-0.2-0.1-0.2-0.2-0.2-0.3l0.4-0.7c0-0.1,0.2-0.1,0.2-0.1
					c0.1,0,0.1,0.2,0.1,0.2L9,20.4C9,20.5,8.9,20.5,8.8,20.5z"/>
			</g>
		</g>
	</g>
	<g>
		<g>
			<g>
				<path class="st10" d="M15.2,9.1C15.2,9.1,15.2,9.1,15.2,9.1C15.1,9,15,8.9,15.1,8.8l0.4-0.7c0-0.1,0.2-0.1,0.2-0.1
					c0.1,0,0.1,0.2,0.1,0.2L15.4,9C15.4,9.1,15.3,9.1,15.2,9.1z"/>
			</g>
		</g>
	</g>
	<g>
		<g>
			<g>
				<rect x="14.4" y="8.2" transform="matrix(0.397 -0.9178 0.9178 0.397 1.3371 18.5959)" class="st10" width="0.8" height="0.2"/>
			</g>
		</g>
	</g>
	<g>
		<g>
			<g>
				<rect x="13.8" y="8" transform="matrix(0.3005 -0.9538 0.9538 0.3005 2.2472 19.1494)" class="st10" width="0.8" height="0.2"/>
			</g>
		</g>
	</g>
	<g>
		<g>
			<g>
				<polygon class="st10" points="13.5,8.3 13.3,8.2 13.5,7.5 13.7,7.5 				"/>
			</g>
		</g>
	</g>
	<g>
		<g>
			<g>
				
					<rect x="12.4" y="7.7" transform="matrix(9.509967e-02 -0.9955 0.9955 9.509967e-02 3.8798 19.8152)" class="st10" width="0.8" height="0.2"/>
			</g>
		</g>
	</g>
	<g>
		<g>
			<g>
				<polygon class="st10" points="13,20.4 13.1,21.2 12.9,21.2 12.9,20.4 				"/>
			</g>
		</g>
	</g>
	<g>
		<g>
			<g>
				
					<rect x="13.6" y="20.3" transform="matrix(0.9757 -0.2191 0.2191 0.9757 -4.2061 3.4962)" class="st10" width="0.2" height="0.8"/>
			</g>
		</g>
	</g>
	<g>
		<g>
			<g>
				<polygon class="st10" points="14.3,20.1 14.5,20.9 14.4,20.9 14.1,20.2 				"/>
			</g>
		</g>
	</g>
	<g>
		<g>
			<g>
				<polygon class="st10" points="14.9,19.9 15.2,20.6 15,20.7 14.7,20 				"/>
			</g>
		</g>
	</g>
	<g>
		<g>
			<g>
				<polygon class="st10" points="9.7,19.9 9.9,20 9.6,20.7 9.4,20.7 				"/>
			</g>
		</g>
	</g>
	<g>
		<g>
			<g>
				<polygon class="st10" points="10.3,20.2 10.5,20.2 10.2,21 10.1,20.9 				"/>
			</g>
		</g>
	</g>
	<g>
		<g>
			<g>
				<polygon class="st10" points="10.9,20.3 11.1,20.4 11,21.2 10.8,21.1 				"/>
			</g>
		</g>
	</g>
	<g>
		<g>
			<g>
				
					<rect x="11.2" y="20.8" transform="matrix(9.338839e-02 -0.9956 0.9956 9.338839e-02 -10.2175 30.4719)" class="st10" width="0.8" height="0.2"/>
			</g>
		</g>
	</g>
</g>
</svg>
